<?xml version="1.0" encoding="utf-8"?>
<!-- Generator: Adobe Illustrator 24.2.3, SVG Export Plug-In . SVG Version: 6.00 Build 0)  -->
<svg version="1.1" id="Art" xmlns="http://www.w3.org/2000/svg" xmlns:xlink="http://www.w3.org/1999/xlink" x="0px" y="0px"
	 viewBox="0 0 1024 772" style="enable-background:new 0 0 1024 772;" xml:space="preserve">
<style type="text/css">
	.st0{fill:#F1F1F1;}
	.st1{fill:#CCCCCC;}
	.st2{fill:none;stroke:#CCCCCC;stroke-width:5;stroke-linecap:round;stroke-miterlimit:10;}
	.st3{fill:none;stroke:#326CE5;stroke-width:5;stroke-linecap:round;stroke-miterlimit:10;stroke-dasharray:0.01999,10.49283;}
	.st4{fill:#343434;}
	.st5{fill:none;stroke:#666666;stroke-width:2;stroke-linecap:round;stroke-linejoin:round;stroke-miterlimit:10;}
	.st6{fill:none;stroke:#666666;stroke-width:2;stroke-linecap:round;stroke-miterlimit:10;}
	.st7{fill:#CCCCCC;stroke:#CCCCCC;stroke-width:5;stroke-linecap:round;stroke-miterlimit:10;}
	.st8{fill:#FFFFFF;stroke:#666666;stroke-width:3;stroke-miterlimit:10;}
	.st9{fill:none;stroke:#666666;stroke-width:2.25;stroke-linecap:round;stroke-miterlimit:10;}
	.st10{fill:none;stroke:#666666;stroke-width:2.25;stroke-linejoin:round;stroke-miterlimit:10;}
	.st11{fill:none;stroke:#666666;stroke-width:2.25;stroke-linecap:round;stroke-linejoin:round;stroke-miterlimit:10;}
	.st12{fill:#FFFFFF;stroke:#666666;stroke-width:2.25;stroke-linecap:round;stroke-linejoin:round;stroke-miterlimit:10;}
	.st13{fill:#FFFFFF;}
	.st14{fill:none;stroke:#666666;stroke-width:2.5;stroke-miterlimit:10;}
	.st15{fill:#E6E6E6;}
	.st16{fill:none;stroke:#E6E6E6;stroke-width:3;stroke-linecap:round;stroke-miterlimit:10;}
	.st17{fill:none;stroke:#666666;stroke-width:3;stroke-linecap:round;stroke-miterlimit:10;stroke-dasharray:0.01991,7.46767;}
	.st18{fill:#009639;}
	.st19{fill:#666666;}
	.st20{fill:none;stroke:#009639;stroke-width:2;stroke-linecap:round;stroke-miterlimit:10;}
	.st21{fill:none;stroke:#009639;stroke-width:2;stroke-linecap:round;stroke-linejoin:round;stroke-miterlimit:10;}
	.st22{fill:#FFFFFF;stroke:#666666;stroke-width:2;stroke-linecap:round;stroke-linejoin:round;stroke-miterlimit:10;}
	.st23{fill:none;stroke:#666666;stroke-width:2.5;stroke-linecap:round;stroke-linejoin:round;stroke-miterlimit:10;}
	.st24{fill:#FFFFFF;stroke:#009639;stroke-width:3;stroke-miterlimit:10;}
	.st25{fill:none;stroke:#009639;stroke-width:2.25;stroke-linecap:round;stroke-linejoin:round;stroke-miterlimit:10;}
	.st26{fill:#FFFFFF;stroke:#009639;stroke-width:2.25;stroke-linecap:round;stroke-linejoin:round;stroke-miterlimit:10;}
	.st27{fill:none;stroke:#009639;stroke-width:2.25;stroke-linecap:round;stroke-miterlimit:10;}
</style>
<rect x="-0.00003" class="st0" width="1024" height="772"/>
<g>
	<path class="st1" d="M974,722.50879c0,5.5-4.5,10-10,10H522c-5.5,0-10-4.5-10-10V50c0-5.5,4.5-10,10-10h442c5.5,0,10,4.5,10,10
		V722.50879z"/>
	<path class="st2" d="M974,722.50879c0,5.5-4.5,10-10,10H522c-5.5,0-10-4.5-10-10V50c0-5.5,4.5-10,10-10h442c5.5,0,10,4.5,10,10
		V722.50879z"/>
</g>
<g>
	<path class="st1" d="M974,722.50879c0,5.5-4.5,10-10,10H522c-5.5,0-10-4.5-10-10V50c0-5.5,4.5-10,10-10h442c5.5,0,10,4.5,10,10
		V722.50879z"/>
	<path class="st3" d="M974,722.50879c0,5.5-4.5,10-10,10H522c-5.5,0-10-4.5-10-10V50c0-5.5,4.5-10,10-10h442c5.5,0,10,4.5,10,10
		V722.50879z"/>
</g>
<g>
	<g>
		<path class="st4" d="M537.28125,68.15625l-1.03418,1.62891v4.11426h-2.94824V59.22363h2.94824v6.66699l4.13672-6.66699h3.43262
			l-4.6875,6.9082l5.01758,7.76758h-3.47656L537.28125,68.15625z"/>
		<path class="st4" d="M550.94336,72.55762c-0.57227,0.83594-1.73828,1.60547-3.125,1.60547
			c-1.95801,0-2.83789-1.07812-2.83789-2.86035v-8.03125h2.64062v7.01953c0,1.12207,0.52734,1.54004,1.4082,1.54004
			c0.85742,0,1.54004-0.6377,1.91406-1.29785v-7.26172h2.64062v10.62793h-2.64062V72.55762z"/>
		<path class="st4" d="M555.95801,59.22363h2.64062v5.39062c0.63867-1.10059,1.67285-1.60645,2.68457-1.60645
			c2.39844,0,3.93848,2.17871,3.93848,5.58887c0,3.47656-1.5625,5.56641-3.93848,5.56641c-1.01172,0-2.02441-0.5498-2.68457-1.60547
			v1.3418h-2.64062V59.22363z M560.44727,71.83105c1.3418,0,2.0459-1.38574,2.0459-3.23438c0-1.87012-0.7041-3.25684-2.0459-3.25684
			c-0.72656,0-1.49609,0.57227-1.84863,1.27637v3.96094C558.95117,71.28125,559.7207,71.83105,560.44727,71.83105z"/>
		<path class="st4" d="M571.24902,63.00781c2.92676,0,4.57617,2.37598,4.57617,5.67676v0.74805h-6.66699
			c0.11035,1.45215,0.96875,2.59668,2.5752,2.59668c0.81348,0,1.71582-0.37402,2.30957-1.03418l1.21094,1.58398
			c-0.94629,1.03418-2.37695,1.58398-3.80664,1.58398c-2.99316,0-4.95117-2.24414-4.95117-5.58887
			C566.49609,65.49414,568.30078,63.00781,571.24902,63.00781z M569.1582,67.62891h4.11523
			c-0.04395-1.10059-0.52832-2.48633-2.06836-2.48633C569.73047,65.14258,569.20312,66.52832,569.1582,67.62891z"/>
		<path class="st4" d="M577.58398,63.27148h2.64062v1.47461c0.59375-0.96777,1.75977-1.71582,2.9043-1.71582v2.57422
			c-0.17578-0.04395-0.39648-0.06641-0.63867-0.06641c-0.83594,0-1.82617,0.57227-2.26562,1.27637v7.08496h-2.64062V63.27148z"/>
		<path class="st4" d="M590.58691,66.90234c0-1.12207-0.50586-1.5625-1.38672-1.5625c-0.87988,0-1.56152,0.68262-1.93555,1.32031
			v7.23926h-2.64062V63.27148h2.64062v1.38672c0.57227-0.83594,1.75977-1.65039,3.12402-1.65039
			c1.95801,0,2.83887,1.14453,2.83887,2.9043v7.9873h-2.64062V66.90234z"/>
		<path class="st4" d="M599.82617,63.00781c2.92676,0,4.57715,2.37598,4.57715,5.67676v0.74805h-6.66699
			c0.11035,1.45215,0.96777,2.59668,2.57422,2.59668c0.81445,0,1.7168-0.37402,2.31055-1.03418l1.20996,1.58398
			c-0.94629,1.03418-2.37598,1.58398-3.80664,1.58398c-2.99219,0-4.9502-2.24414-4.9502-5.58887
			C595.07422,65.49414,596.87793,63.00781,599.82617,63.00781z M597.73633,67.62891h4.11426
			c-0.04395-1.10059-0.52734-2.48633-2.06836-2.48633C598.30859,65.14258,597.78027,66.52832,597.73633,67.62891z"/>
		<path class="st4" d="M606.62402,71.34668v-5.76465h-1.38672v-2.31055h1.38672v-2.9043h2.63965v2.9043h1.76074v2.31055h-1.76074
			v5.14941c0,0.68164,0.26465,1.09961,0.77051,1.09961c0.33008,0,0.66016-0.13184,0.79199-0.30762l0.5498,2.02441
			c-0.39551,0.35156-1.07812,0.61523-2.0459,0.61523C607.48145,74.16309,606.62402,73.21777,606.62402,71.34668z"/>
		<path class="st4" d="M616.91992,63.00781c2.92676,0,4.57617,2.37598,4.57617,5.67676v0.74805h-6.66699
			c0.11035,1.45215,0.96875,2.59668,2.5752,2.59668c0.81348,0,1.71582-0.37402,2.30957-1.03418l1.21094,1.58398
			c-0.94629,1.03418-2.37695,1.58398-3.80664,1.58398c-2.99316,0-4.95117-2.24414-4.95117-5.58887
			C612.16699,65.49414,613.97168,63.00781,616.91992,63.00781z M614.8291,67.62891h4.11523
			c-0.04395-1.10059-0.52832-2.48633-2.06836-2.48633C615.40137,65.14258,614.87402,66.52832,614.8291,67.62891z"/>
		<path class="st4" d="M623.5625,70.79688c0.66016,0.7041,1.84863,1.29785,2.92676,1.29785c1.01172,0,1.5625-0.41797,1.5625-1.09961
			c0-0.72656-0.81445-1.03418-1.82617-1.36426c-1.49609-0.48438-3.43262-1.05664-3.43262-3.43262
			c0-1.71582,1.38574-3.19043,3.87207-3.19043c1.51855,0,2.77246,0.5498,3.69727,1.36426l-1.05664,1.78223
			c-0.52832-0.59375-1.51855-1.10059-2.59668-1.10059c-0.83594,0-1.4082,0.39648-1.4082,0.99023
			c0,0.63867,0.72656,0.94629,1.7168,1.25488c1.54004,0.4834,3.56445,1.12207,3.56445,3.56445
			c0,1.91406-1.5625,3.2998-4.04883,3.2998c-1.71582,0-3.19043-0.57129-4.09277-1.51758L623.5625,70.79688z"/>
		<path class="st4" d="M533.29883,81.22363h8.40527v2.57422h-5.45703v3.36621h5.30273v2.55273h-5.30273v3.6084h5.45703v2.57422
			h-8.40527V81.22363z"/>
		<path class="st4" d="M549.73242,88.90234c0-1.12207-0.50586-1.5625-1.38574-1.5625s-1.5625,0.68262-1.93652,1.32031v7.23926
			h-2.64062V85.27148h2.64062v1.38672c0.57227-0.83594,1.76074-1.65039,3.125-1.65039c1.95801,0,2.83789,1.14453,2.83789,2.9043
			v7.9873h-2.64062V88.90234z"/>
		<path class="st4" d="M553.53809,85.27148h2.81641l2.13379,7.45996l2.15625-7.45996h2.81641l-3.54199,10.62793h-2.83887
			L553.53809,85.27148z"/>
		<path class="st4" d="M564.31836,82.125c0-0.87988,0.72559-1.60547,1.58398-1.60547c0.87988,0,1.58398,0.72559,1.58398,1.60547
			c0,0.88086-0.7041,1.58496-1.58398,1.58496C565.04395,83.70996,564.31836,83.00586,564.31836,82.125z M564.58203,85.27148h2.64062
			v10.62793h-2.64062V85.27148z"/>
		<path class="st4" d="M569.59766,85.27148h2.64062v1.47461c0.59473-0.96777,1.76074-1.71582,2.9043-1.71582v2.57422
			c-0.17578-0.04395-0.39551-0.06641-0.6377-0.06641c-0.83594,0-1.82617,0.57227-2.2666,1.27637v7.08496h-2.64062V85.27148z"/>
		<path class="st4" d="M576.08789,90.57422c0-2.96973,1.67285-5.56641,4.79688-5.56641c3.16797,0,4.81836,2.59668,4.81836,5.56641
			c0,2.99316-1.65039,5.58887-4.81836,5.58887C577.76074,96.16309,576.08789,93.56738,576.08789,90.57422z M582.97461,90.57422
			c0-1.73828-0.6377-3.23438-2.08984-3.23438c-1.4082,0-2.0459,1.49609-2.0459,3.23438c0,1.76074,0.6377,3.25684,2.0459,3.25684
			C582.33691,93.83105,582.97461,92.33496,582.97461,90.57422z"/>
		<path class="st4" d="M593.49023,88.90234c0-1.12207-0.50586-1.5625-1.38574-1.5625s-1.5625,0.68262-1.93652,1.32031v7.23926
			h-2.64062V85.27148h2.64062v1.38672c0.57227-0.83594,1.76074-1.65039,3.125-1.65039c1.95801,0,2.83789,1.14453,2.83789,2.9043
			v7.9873h-2.64062V88.90234z"/>
		<path class="st4" d="M609.88184,88.74805c0-0.87988-0.37402-1.4082-1.21094-1.4082c-0.83594,0-1.49609,0.72656-1.82617,1.32031
			v7.23926h-2.63965v-7.15137c0-0.85742-0.35254-1.4082-1.21094-1.4082c-0.81348,0-1.49609,0.72656-1.82617,1.32031v7.23926
			h-2.64062V85.27148h2.64062v1.38672c0.41797-0.72656,1.65039-1.65039,2.99219-1.65039c1.34277,0,2.28906,0.6377,2.5752,1.84863
			c0.50586-0.9248,1.75977-1.84863,3.10254-1.84863c1.62793,0,2.68359,0.8584,2.68359,2.81641v8.0752h-2.63965V88.74805z"/>
		<path class="st4" d="M619.09766,85.00781c2.92676,0,4.57715,2.37598,4.57715,5.67676v0.74805h-6.66699
			c0.11035,1.45215,0.96777,2.59668,2.57422,2.59668c0.81445,0,1.7168-0.37402,2.31055-1.03418l1.20996,1.58398
			c-0.94629,1.03418-2.37598,1.58398-3.80664,1.58398c-2.99219,0-4.9502-2.24414-4.9502-5.58887
			C614.3457,87.49414,616.14941,85.00781,619.09766,85.00781z M617.00781,89.62891h4.11426
			c-0.04395-1.10059-0.52734-2.48633-2.06836-2.48633C617.58008,87.14258,617.05176,88.52832,617.00781,89.62891z"/>
		<path class="st4" d="M631.39551,88.90234c0-1.12207-0.50586-1.5625-1.38574-1.5625s-1.5625,0.68262-1.93652,1.32031v7.23926
			h-2.64062V85.27148h2.64062v1.38672c0.57227-0.83594,1.76074-1.65039,3.125-1.65039c1.95801,0,2.83789,1.14453,2.83789,2.9043
			v7.9873h-2.64062V88.90234z"/>
		<path class="st4" d="M636.89551,93.34668v-5.76465h-1.38672v-2.31055h1.38672v-2.9043h2.63965v2.9043h1.76074v2.31055h-1.76074
			v5.14941c0,0.68164,0.26465,1.09961,0.77051,1.09961c0.33008,0,0.66016-0.13184,0.79199-0.30762l0.5498,2.02441
			c-0.39551,0.35156-1.07812,0.61523-2.0459,0.61523C637.75293,96.16309,636.89551,95.21777,636.89551,93.34668z"/>
	</g>
</g>
<g>
	<g>
		<path class="st4" d="M51.65186,40h6.02002c5.15186,0,8.12012,3.86426,8.12012,9.35156c0,5.48828-2.93994,9.32422-8.12012,9.32422
			h-6.02002V40z M57.67188,55.37207c2.77197,0,4.28418-2.46387,4.28418-6.02051c0-3.69531-1.45605-6.04785-4.28418-6.04785h-2.26807
			v12.06836H57.67188z"/>
		<path class="st4" d="M73.5752,44.81543c3.72412,0,5.82422,3.02441,5.82422,7.22461v0.95215h-8.48389
			c0.13965,1.84766,1.23193,3.30371,3.27588,3.30371c1.03564,0,2.18408-0.47656,2.93994-1.31641l1.54004,2.0166
			c-1.2041,1.31543-3.02393,2.01562-4.84424,2.01562c-3.80762,0-6.2998-2.85547-6.2998-7.1123
			C67.52734,47.97949,69.82324,44.81543,73.5752,44.81543z M70.91553,50.69629h5.23584
			c-0.05615-1.40039-0.67188-3.16406-2.63184-3.16406C71.64307,47.53223,70.97119,49.2959,70.91553,50.69629z"/>
		<path class="st4" d="M81.63916,40h3.35986v6.85938c0.81201-1.39941,2.12793-2.04395,3.41602-2.04395
			c3.05176,0,5.01172,2.77246,5.01172,7.1123c0,4.42383-1.98779,7.08398-5.01172,7.08398c-1.28809,0-2.57617-0.7002-3.41602-2.04395
			v1.70801h-3.35986V40z M87.35107,56.04395c1.70801,0,2.604-1.76367,2.604-4.11621c0-2.37988-0.896-4.14355-2.604-4.14355
			c-0.92432,0-1.9043,0.72754-2.35205,1.62402v5.04004C85.44678,55.34375,86.42676,56.04395,87.35107,56.04395z"/>
		<path class="st4" d="M103.33887,56.96777c-0.72803,1.06445-2.21191,2.04395-3.97607,2.04395
			c-2.49219,0-3.61182-1.37207-3.61182-3.63965v-10.2207h3.35986v8.93262c0,1.42773,0.67188,1.95996,1.79199,1.95996
			c1.0918,0,1.95996-0.8125,2.43604-1.65234v-9.24023h3.35986v13.52441h-3.35986V56.96777z"/>
		<path class="st4" d="M110.92627,59.85156c0.92432,1.00781,2.1001,1.48438,3.47217,1.48438
			c1.54004,0,3.02393-0.8125,3.02393-3.19238v-1.65137c-0.83984,1.34375-2.1001,2.07129-3.41602,2.07129
			c-3.02393,0-4.98389-2.43555-4.98389-6.85938c0-4.33984,1.95996-6.88867,4.98389-6.88867c1.31592,0,2.604,0.64453,3.41602,2.04395
			v-1.70801h3.35986v12.82422c0,4.92773-3.21973,6.18848-6.21582,6.18848c-1.98779,0-3.58398-0.47656-4.98389-1.73633
			L110.92627,59.85156z M117.42236,49.37988c-0.41992-0.89648-1.3999-1.5957-2.32373-1.5957c-1.70801,0-2.604,1.56738-2.604,3.91992
			c0,2.35156,0.896,3.8916,2.604,3.8916c0.92383,0,1.90381-0.7002,2.32373-1.56836V49.37988z"/>
		<path class="st4" d="M135.62207,51.89941h-2.01611v6.77637H129.854V40h6.97217c3.41602,0,5.68408,2.46387,5.68408,5.9082
			c0,3.21973-1.70801,4.84375-3.24805,5.34766l3.3877,7.41992h-4.17188L135.62207,51.89941z M136.26611,43.27539h-2.66016v5.37598
			h2.66016c1.45605,0,2.4082-1.0918,2.4082-2.6875C138.67432,44.31152,137.72217,43.27539,136.26611,43.27539z"/>
		<path class="st4" d="M143.74219,51.89941c0-3.7793,2.12793-7.08398,6.104-7.08398c4.03174,0,6.13184,3.30469,6.13184,7.08398
			c0,3.80859-2.1001,7.1123-6.13184,7.1123C145.87012,59.01172,143.74219,55.70801,143.74219,51.89941z M152.50635,51.89941
			c0-2.21191-0.81201-4.11523-2.66016-4.11523c-1.79199,0-2.604,1.90332-2.604,4.11523c0,2.24023,0.81201,4.14453,2.604,4.14453
			C151.69434,56.04395,152.50635,54.13965,152.50635,51.89941z"/>
		<path class="st4" d="M165.89014,56.96777c-0.72803,1.06445-2.21191,2.04395-3.97607,2.04395
			c-2.49219,0-3.61182-1.37207-3.61182-3.63965v-10.2207h3.35986v8.93262c0,1.42773,0.67188,1.95996,1.79199,1.95996
			c1.0918,0,1.95996-0.8125,2.43604-1.65234v-9.24023H169.25v13.52441h-3.35986V56.96777z"/>
		<path class="st4" d="M172.86182,55.42773V48.0918h-1.76416v-2.94043h1.76416v-3.69531h3.35986v3.69531h2.24023v2.94043h-2.24023
			v6.55176c0,0.86816,0.33594,1.40039,0.97998,1.40039c0.41992,0,0.83984-0.16797,1.00781-0.39258l0.7002,2.57617
			c-0.50391,0.44824-1.37207,0.78418-2.604,0.78418C173.95361,59.01172,172.86182,57.80762,172.86182,55.42773z"/>
		<path class="st4" d="M180.28125,41.14746c0-1.11914,0.92432-2.04395,2.01611-2.04395c1.12012,0,2.01611,0.9248,2.01611,2.04395
			c0,1.12012-0.896,2.0166-2.01611,2.0166C181.20557,43.16406,180.28125,42.26758,180.28125,41.14746z M180.61768,45.15137h3.35986
			v13.52441h-3.35986V45.15137z"/>
		<path class="st4" d="M194.58936,49.77148c0-1.42773-0.64404-1.9873-1.76416-1.9873s-1.98779,0.86719-2.46387,1.67969v9.21191
			h-3.35986V45.15137h3.35986v1.76465c0.72803-1.06445,2.23975-2.10059,3.97607-2.10059c2.4917,0,3.61182,1.45605,3.61182,3.69629
			v10.16406h-3.35986V49.77148z"/>
		<path class="st4" d="M202.20508,59.85156c0.92432,1.00781,2.1001,1.48438,3.47217,1.48438
			c1.54004,0,3.02393-0.8125,3.02393-3.19238v-1.65137c-0.83984,1.34375-2.1001,2.07129-3.41602,2.07129
			c-3.02393,0-4.98389-2.43555-4.98389-6.85938c0-4.33984,1.95996-6.88867,4.98389-6.88867c1.31592,0,2.604,0.64453,3.41602,2.04395
			v-1.70801h3.35986v12.82422c0,4.92773-3.21973,6.18848-6.21582,6.18848c-1.98779,0-3.58398-0.47656-4.98389-1.73633
			L202.20508,59.85156z M208.70117,49.37988c-0.41992-0.89648-1.3999-1.5957-2.32373-1.5957c-1.70801,0-2.604,1.56738-2.604,3.91992
			c0,2.35156,0.896,3.8916,2.604,3.8916c0.92383,0,1.90381-0.7002,2.32373-1.56836V49.37988z"/>
	</g>
</g>
<g>
	<g>
		<line class="st5" x1="470.96436" y1="386.25439" x2="466.00684" y2="381.29688"/>
		<line class="st5" x1="470.96436" y1="386.25439" x2="466.00684" y2="391.21194"/>
	</g>
	<g>
		<line class="st5" x1="159.99998" y1="386.25439" x2="164.95752" y2="381.29688"/>
		<line class="st5" x1="159.99998" y1="386.25439" x2="164.95752" y2="391.21194"/>
	</g>
	<line class="st6" x1="159.99998" y1="386.25439" x2="470.96436" y2="386.25439"/>
</g>
<rect x="511.99997" y="352.61731" class="st7" width="19.39697" height="108.74695"/>
<g>
	<g>
		<path class="st4" d="M297.33154,626.82129h-4.58105l-0.72021,2.64062h-2.30029l3.98096-13.34277h2.66064l3.98047,13.34277
			h-2.30029L297.33154,626.82129z M293.21045,624.86133h3.68115l-1.84033-6.76172L293.21045,624.86133z"/>
		<path class="st4" d="M307.07129,628.18164c-0.58057,0.95996-1.52051,1.52051-2.48096,1.52051
			c-2.16016,0-3.52051-1.96094-3.52051-5.06152c0-3.06055,1.34033-5.08105,3.52051-5.08105c0.94043,0,1.90039,0.5,2.48096,1.54102
			v-4.98145h2v13.34277h-2V628.18164z M307.07129,622.64062c-0.34033-0.7207-1.12061-1.32031-1.88086-1.32031
			c-1.37988,0-2.06006,1.44043-2.06006,3.32031c0,1.84082,0.68018,3.30078,2.06006,3.30078
			c0.76025,0,1.54053-0.59961,1.88086-1.32031V622.64062z"/>
		<path class="st4" d="M321.51172,622.74023c0-0.90039-0.35986-1.41992-1.2002-1.41992c-0.7998,0-1.52002,0.7002-1.84033,1.33984
			v6.80176h-2.00049v-6.72168c0-0.87988-0.35986-1.41992-1.2002-1.41992c-0.80029,0-1.50049,0.7002-1.84033,1.33984v6.80176
			h-2.00049v-9.66211h2.00049v1.30078c0.37988-0.68066,1.48047-1.54102,2.68066-1.54102c1.22021,0,2.04053,0.62012,2.26025,1.7002
			c0.46045-0.85938,1.58057-1.7002,2.78076-1.7002c1.46045,0,2.36035,0.78027,2.36035,2.54102v7.36133h-2.00049V622.74023z"/>
		<path class="st4" d="M325.60938,616.95898c0-0.7002,0.58008-1.25977,1.26025-1.25977s1.24023,0.55957,1.24023,1.25977
			c0,0.68066-0.56006,1.24023-1.24023,1.24023S325.60938,617.63965,325.60938,616.95898z M325.86914,619.7998h2.00049v9.66211
			h-2.00049V619.7998z"/>
		<path class="st4" d="M335.57031,622.88086c0-1.14062-0.52002-1.56055-1.38037-1.56055s-1.60059,0.66016-1.96045,1.33984v6.80176
			H330.229v-9.66211h2.00049v1.30078c0.52002-0.78027,1.60059-1.54102,2.80078-1.54102c1.74023,0,2.54053,0.95996,2.54053,2.62109
			v7.28125h-2.00049V622.88086z"/>
		<path class="st4" d="M288.29004,642.80078c0-4.02148,2.1001-6.90137,5.38086-6.90137c2.38086,0,3.58105,1.45996,4.28125,2.94043
			l-1.84033,0.82031c-0.46045-1.06055-1.28027-1.80078-2.44092-1.80078c-1.90039,0-3.12061,2.08008-3.12061,4.94141
			c0,2.83984,1.22021,4.9209,3.12061,4.9209c1.22021,0,2.04053-0.83984,2.46094-1.96094l1.84033,0.82031
			c-0.68018,1.56055-1.88037,3.12109-4.30127,3.12109C290.39014,649.70215,288.29004,646.80176,288.29004,642.80078z"/>
		<path class="st4" d="M299.1499,644.62109c0-2.7207,1.44043-5.06152,4.18066-5.06152c2.74072,0,4.18115,2.34082,4.18115,5.06152
			s-1.44043,5.08105-4.18115,5.08105C300.59033,649.70215,299.1499,647.3418,299.1499,644.62109z M305.45117,644.62109
			c0-1.74023-0.66016-3.30078-2.12061-3.30078c-1.45996,0-2.12012,1.56055-2.12012,3.30078s0.66016,3.32031,2.12012,3.32031
			C304.79102,647.94141,305.45117,646.36133,305.45117,644.62109z"/>
		<path class="st4" d="M308.90967,644.62109c0-2.7207,1.44043-5.06152,4.18066-5.06152c2.74072,0,4.18115,2.34082,4.18115,5.06152
			s-1.44043,5.08105-4.18115,5.08105C310.3501,649.70215,308.90967,647.3418,308.90967,644.62109z M315.21094,644.62109
			c0-1.74023-0.66016-3.30078-2.12061-3.30078c-1.45996,0-2.12012,1.56055-2.12012,3.30078s0.66016,3.32031,2.12012,3.32031
			C314.55078,647.94141,315.21094,646.36133,315.21094,644.62109z"/>
		<path class="st4" d="M322.31006,645.4209l-1.16016,1.56055v2.48047h-2.00049v-13.34277h2.00049v8.42188l3.40088-4.74121h2.32031
			l-3.20068,4.34082l3.26074,5.32129h-2.34033L322.31006,645.4209z"/>
		<path class="st4" d="M328.00977,636.95898c0-0.7002,0.58008-1.25977,1.26025-1.25977s1.24023,0.55957,1.24023,1.25977
			c0,0.68066-0.56006,1.24023-1.24023,1.24023S328.00977,637.63965,328.00977,636.95898z M328.26953,639.7998h2.00049v9.66211
			h-2.00049V639.7998z"/>
		<path class="st4" d="M336.29004,639.55957c2.62061,0,4.021,2.2207,4.021,5.1416v0.58008h-6.14111
			c0.08008,1.58008,0.95996,2.78027,2.52051,2.78027c0.76025,0,1.62012-0.37988,2.18018-1.04004l0.96045,1.2002
			c-0.82031,0.94043-2.04053,1.48047-3.34082,1.48047c-2.66064,0-4.34082-2.08105-4.34082-5.08105
			C332.14941,641.82031,333.70947,639.55957,336.29004,639.55957z M334.1499,643.86035h4.2207
			c-0.02002-1.2002-0.56006-2.68066-2.10059-2.68066C334.77002,641.17969,334.20996,642.7002,334.1499,643.86035z"/>
	</g>
</g>
<g>
	<circle class="st8" cx="99.99999" cy="386.25439" r="50"/>
	<g>
		<g>
			<path class="st9" d="M88.39012,364.19861c-0.64095-1.67496-2.88541-2.86734-7.65845-3.00937l0,0
				c-4.37805,0-9.24909,2.64261-9.24909,9.51331v5.021v1.32129c0,4.74393,2.16006,8.83878,5.28519,10.74719"/>
			<path class="st10" d="M75.44647,386.8046v2.13193c0,1.32129,0.66065,3.30325-6.60649,4.62454
				c-6.5,1.18198-7.66968,7.26715-7.66968,7.26715h17.18945"/>
			<line class="st11" x1="74.12518" y1="391.86499" x2="79.58756" y2="399.11902"/>
		</g>
		<g>
			<g>
				<path class="st9" d="M128.53796,377.04483v-1.32129v-5.021c0-6.8707-4.87097-9.51331-9.2491-9.51331l0,0
					c0,0-4.35929-0.25171-7.02222,2.13199"/>
				<path class="st10" d="M121.64024,400.82822h17.18945c0,0-1.1749-6.05777-7.66974-7.26715
					c-7.08137-1.31839-6.60649-3.30325-6.60649-4.62454l0.02061-2.08224"/>
				<line class="st11" x1="120.41242" y1="399.11902" x2="125.89536" y2="391.82462"/>
			</g>
		</g>
		<path class="st9" d="M123.25262,387.79202c3.12513-1.90842,5.28519-6.00327,5.28519-10.74719"/>
		<path class="st11" d="M92.26939,393.85245c-1.07894,0.49136-2.96357,1.09433-6.25301,2.03949
			c-7.52875,2.16327-9.09387,8.61658-9.09387,8.61658h46.36313c0,0-1.48158-6.7695-9.09395-8.61658
			c-3.34763-0.81229-5.22745-1.44113-6.27991-2.00739"/>
		<polyline class="st11" points="92.283,393.88089 100.11626,404.50851 107.94952,393.83304 		"/>
		<g>
			<path class="st11" d="M113.65944,392.67297h-8.90166c3.70544-2.26279,5.88634-6.98819,6.44604-12.58511
				c0.30695-3.06952-0.30696-6.75299-0.30696-6.75299s-0.91014-8.90164-6.75298-8.90164c-5.81766,0-8.07994,4.759-15.89458,5.44131
				l-1.90874,0.08386c0.67343,0,1.30568-0.03122,1.90874-0.08386l1.40923-0.06192c-0.36546,1.38901-0.50882,4.92947-0.50882,4.92947
				v1.56668c0,5.62482,2.38708,14.10141,6.09252,16.3642h-8.90166c0,0-2.45563,0.30695-2.45563-3.68344v-3.68344
				c-0.61391-29.16061,16.26855-27.9328,16.26855-27.9328c19.952-0.30698,16.88246,30.38843,16.88246,30.38843
				S117.34289,392.36603,113.65944,392.67297z"/>
			<path class="st12" d="M88.24928,369.87454l-1.90874,0.08386C87.01398,369.9584,87.64622,369.92719,88.24928,369.87454z"/>
		</g>
		<path class="st11" d="M71.48257,371.9967c7.9278,0,7.20861-6.00455,15.04311-5.02631"/>
		<path class="st11" d="M127.78557,371.6777c-6.9426,0-6.3128-5.25836-13.17371-4.4017"/>
	</g>
</g>
<g>
	<path class="st13" d="M934,358.68469c0,6.91336-5.65637,12.5697-12.5697,12.5697H772.77252
		c-6.91333,0-12.5697-5.65634-12.5697-12.5697V77.5697c0-6.91334,5.65637-12.5697,12.5697-12.5697H921.4303
		C928.34363,65,934,70.65636,934,77.5697V358.68469z"/>
	<path class="st14" d="M934,358.68469c0,6.91336-5.65637,12.5697-12.5697,12.5697H772.77252
		c-6.91333,0-12.5697-5.65634-12.5697-12.5697V77.5697c0-6.91334,5.65637-12.5697,12.5697-12.5697H921.4303
		C928.34363,65,934,70.65636,934,77.5697V358.68469z"/>
</g>
<g>
	<path class="st4" d="M780.10156,74.98633h5.04102c2.26074,0,3.44043,1.5,3.44043,3.40039
		c0,1.68066-0.91992,2.74121-2.10059,3.06055c1.32031,0.2002,2.32031,1.64062,2.32031,3.28125
		c0,2.08008-1.16016,3.60059-3.5,3.60059h-5.20117V74.98633z M784.66211,80.54785c1.12012,0,1.64062-0.74023,1.64062-1.80078
		c0-1.04004-0.52051-1.82031-1.64062-1.82031h-2.33984v3.62109H784.66211z M784.74219,86.36914
		c1.18066,0,1.78027-0.7207,1.78027-1.94043c0-1.06055-0.58008-1.9209-1.78027-1.9209h-2.41992v3.86133H784.74219z"/>
	<path class="st4" d="M795.80176,87.34863c-0.58008,0.80078-1.55957,1.2207-2.54004,1.2207
		c-1.56055,0-2.96094-1.16016-2.96094-3.2207c0-2.08105,1.40039-3.14062,2.96094-3.14062c0.98047,0,1.98047,0.37988,2.54004,1.16016
		v-1.40039c0-1.16016-0.67969-1.84082-1.87988-1.84082c-0.86035,0-1.66016,0.34082-2.40039,1.10059l-0.78027-1.40039
		c0.98047-0.98047,2.30078-1.40039,3.54102-1.40039c2.02051,0,3.5,0.94043,3.5,3.30078v6.60156h-1.98047V87.34863z
		 M795.80176,84.66797c-0.37988-0.67969-1.09961-1.08008-1.82031-1.08008c-1.04004,0-1.67969,0.76074-1.67969,1.80078
		s0.63965,1.7998,1.67969,1.7998c0.7207,0,1.44043-0.39941,1.82031-1.05957V84.66797z"/>
	<path class="st4" d="M805.48242,81.74805c0-1.14062-0.52051-1.56055-1.38086-1.56055s-1.60059,0.66016-1.95996,1.33984v6.80176
		h-2.00098v-9.66211h2.00098v1.30078c0.51953-0.78027,1.60059-1.54102,2.80078-1.54102c1.74023,0,2.54004,0.95996,2.54004,2.62109
		v7.28125h-2V81.74805z"/>
	<path class="st4" d="M813.00098,84.28809l-1.16016,1.56055v2.48047h-2V74.98633h2v8.42188l3.40137-4.74121h2.32031
		l-3.20117,4.34082l3.26074,5.32129h-2.33984L813.00098,84.28809z"/>
	<path class="st4" d="M818.70117,75.82617c0-0.7002,0.58008-1.25977,1.25977-1.25977c0.68066,0,1.24023,0.55957,1.24023,1.25977
		c0,0.68066-0.55957,1.24023-1.24023,1.24023C819.28125,77.06641,818.70117,76.50684,818.70117,75.82617z M818.96094,78.66699h2
		v9.66211h-2V78.66699z"/>
	<path class="st4" d="M828.66211,81.74805c0-1.14062-0.52051-1.56055-1.38086-1.56055s-1.60059,0.66016-1.95996,1.33984v6.80176
		h-2.00098v-9.66211h2.00098v1.30078c0.51953-0.78027,1.60059-1.54102,2.80078-1.54102c1.74023,0,2.54004,0.95996,2.54004,2.62109
		v7.28125h-2V81.74805z"/>
	<path class="st4" d="M833.76074,89.48926c0.66016,0.7207,1.5,1.08008,2.5,1.08008c1.2002,0,2.28125-0.66016,2.28125-2.41992
		v-1.38086c-0.58105,0.98047-1.52051,1.58008-2.48145,1.58008c-2.16016,0-3.52051-1.86035-3.52051-4.96094
		c0-3.06055,1.34082-4.96094,3.52051-4.96094c0.94043,0,1.88086,0.5,2.48145,1.54102v-1.30078h1.97949v9.32227
		c0,3.34082-2.08008,4.26074-4.16016,4.26074c-1.38086,0-2.46094-0.32031-3.4209-1.2207L833.76074,89.48926z M838.54199,81.50781
		c-0.34082-0.7207-1.12109-1.32031-1.88086-1.32031c-1.37988,0-2.06055,1.33984-2.06055,3.2002
		c0,1.84082,0.68066,3.18066,2.06055,3.18066c0.75977,0,1.54004-0.59961,1.88086-1.32031V81.50781z"/>
	<path class="st4" d="M853.58105,85.68848H849l-0.71973,2.64062h-2.30078l3.98145-13.34277h2.66016l3.98047,13.34277h-2.2998
		L853.58105,85.68848z M849.45996,83.72852h3.68164l-1.84082-6.76172L849.45996,83.72852z"/>
	<path class="st4" d="M857.83984,92.00977V78.66699h2v1.28027c0.56055-0.95996,1.50098-1.52051,2.48047-1.52051
		c2.18066,0,3.52148,1.94043,3.52148,5.06152c0,3.08008-1.34082,5.08105-3.52148,5.08105c-0.95996,0-1.90039-0.5-2.48047-1.54004
		v4.98047H857.83984z M861.7207,80.1875c-0.76074,0-1.54102,0.58008-1.88086,1.32031v3.96094
		c0.33984,0.71973,1.12012,1.33984,1.88086,1.33984c1.37988,0,2.06055-1.45996,2.06055-3.32031S863.10059,80.1875,861.7207,80.1875z
		"/>
	<path class="st4" d="M867.69922,92.00977V78.66699h2.00098v1.28027c0.55957-0.95996,1.5-1.52051,2.48047-1.52051
		c2.18066,0,3.52051,1.94043,3.52051,5.06152c0,3.08008-1.33984,5.08105-3.52051,5.08105c-0.95996,0-1.90039-0.5-2.48047-1.54004
		v4.98047H867.69922z M871.58008,80.1875c-0.75977,0-1.54004,0.58008-1.87988,1.32031v3.96094
		c0.33984,0.71973,1.12012,1.33984,1.87988,1.33984c1.38086,0,2.06055-1.45996,2.06055-3.32031S872.96094,80.1875,871.58008,80.1875
		z"/>
	<path class="st4" d="M880.65918,74.98633h2.40039l2.9209,10.72266l2.90039-10.72266h2.40039l-3.98047,13.34277h-2.66113
		L880.65918,74.98633z"/>
	<path class="st4" d="M899.13867,77.86719l-2.04004,2.14062l-1.2998-1.36035l3.62012-3.66113h1.9209V88.3291h-2.20117V77.86719z"/>
	<path class="st4" d="M905.03906,85.84863c0.74023,0,1.33984,0.62012,1.33984,1.33984c0,0.74023-0.59961,1.36035-1.33984,1.36035
		c-0.7207,0-1.34082-0.62012-1.34082-1.36035C903.69824,86.46875,904.31836,85.84863,905.03906,85.84863z"/>
	<path class="st4" d="M912.45996,76.92676h-5.58105v-1.94043h8.08203v1.52051l-4.20117,11.82227h-2.38086L912.45996,76.92676z"/>
</g>
<g>
	<g>
		<g>
			<path class="st15" d="M894.31134,351.25446c0,2.75-2.25,5-5,5h-84.41992c-2.75,0-5-2.25-5-5v-60.88821c0-2.75,2.25-5,5-5
				h84.41992c2.75,0,5,2.25,5,5V351.25446z"/>
			<path class="st16" d="M894.31134,351.25446c0,2.75-2.25,5-5,5h-84.41992c-2.75,0-5-2.25-5-5v-60.88821c0-2.75,2.25-5,5-5
				h84.41992c2.75,0,5,2.25,5,5V351.25446z"/>
		</g>
		<g>
			<path class="st17" d="M894.31128,351.25446c0,2.75-2.25,5-5,5h-84.4198c-2.75,0-5-2.25-5-5v-60.88821c0-2.75,2.25-5,5-5h84.4198
				c2.75,0,5,2.25,5,5V351.25446z"/>
		</g>
	</g>
	<g>
		<g>
			<path class="st13" d="M829.78058,322.86685c0.18811,0.32623,0.45325,0.58075,0.75916,0.7533l15.52942,8.96591l0.00049-0.00049
				c0.30298,0.17841,0.6554,0.28067,1.03204,0.28067s0.72955-0.10226,1.03198-0.28067l15.52997-8.96591
				c0.30585-0.17255,0.57007-0.42657,0.75861-0.75281s0.27631-0.68253,0.27289-1.03397v-17.93182l-0.00043-0.00049
				c0.00287-0.35095-0.08484-0.70776-0.27295-1.034c-0.18854-0.32623-0.45374-0.5802-0.75909-0.75327l-15.52991-8.96591v-0.00049
				c-0.30249-0.17838-0.65491-0.28067-1.03156-0.28067c-0.37616,0-0.72858,0.10229-1.03107,0.28067v0.00049l-15.52948,8.96591
				c-0.30585,0.17307-0.57098,0.42706-0.75958,0.7533c-0.18805,0.32623-0.27582,0.68301-0.27289,1.03397l-0.00049,0.00049v17.93182
				c-0.00342,0.35144,0.08435,0.70773,0.2724,1.03397"/>
			<path class="st18" d="M848.13367,313.46185l16.56152-9.56152l-0.00055,0.00024l0.00049,0.00049v17.93182
				c0.00336,0.35144-0.08435,0.70773-0.27295,1.03397c-0.18854,0.32623-0.45276,0.58026-0.75861,0.75281l-15.52991,8.96591
				V313.46185z"/>
			<path class="st19" d="M848.13367,313.46185l16.56152-9.56152l-0.00055,0.00024l0.00049,0.00049v17.93182
				c0.00336,0.35144-0.08435,0.70773-0.27295,1.03397c-0.18854,0.32623-0.45276,0.58026-0.75861,0.75281l-15.52991,8.96591
				V313.46185z"/>
			<path class="st19" d="M847.10126,311.67505l-16.56134-9.56198l0.00055,0.0004l0.00012-0.00067l15.52948-8.96591
				c0.30261-0.17865,0.65509-0.28082,1.03186-0.28064c0.37683,0.00018,0.72888,0.10199,1.03131,0.28058l15.52966,8.96634
				L847.10126,311.67505z"/>
			<path class="st19" d="M846.06909,313.46185l-16.56152-9.56152l0.00055,0.00024l-0.00049,0.00049v17.93182
				c-0.00336,0.35144,0.08435,0.70773,0.27295,1.03397c0.18854,0.32623,0.45276,0.58026,0.75861,0.75281l15.52991,8.96591V313.46185
				z"/>
		</g>
		<g>
			<path class="st4" d="M836.30957,337.8623h3.63379c2.09668,0,3.15332,1.53711,3.15332,3.31348
				c0,1.79297-1.05664,3.33008-3.15332,3.33008h-1.85645v4.0332h-1.77734V337.8623z M839.73535,339.41504h-1.64844v3.52148h1.64844
				c0.94434,0,1.55273-0.7041,1.55273-1.76074C841.28809,340.12012,840.67969,339.41504,839.73535,339.41504z"/>
			<path class="st4" d="M843.76465,344.66504c0-2.17676,1.15332-4.04883,3.3457-4.04883c2.19336,0,3.3457,1.87207,3.3457,4.04883
				c0,2.17773-1.15234,4.06641-3.3457,4.06641C844.91797,348.73145,843.76465,346.84277,843.76465,344.66504z M848.80664,344.66504
				c0-1.39258-0.52734-2.64062-1.69629-2.64062c-1.16797,0-1.69629,1.24805-1.69629,2.64062s0.52832,2.65723,1.69629,2.65723
				C848.2793,347.32227,848.80664,346.05762,848.80664,344.66504z"/>
			<path class="st4" d="M856.375,347.51465c-0.46484,0.76855-1.2168,1.2168-1.98535,1.2168
				c-1.72852,0-2.81738-1.56934-2.81738-4.0498c0-2.44922,1.07324-4.06543,2.81738-4.06543
				c0.75293,0,1.52051,0.39941,1.98535,1.23242v-3.98633h1.60059v10.67676H856.375V347.51465z M856.375,343.08105
				c-0.27246-0.57617-0.89648-1.05664-1.50488-1.05664c-1.10449,0-1.64844,1.15234-1.64844,2.65723
				c0,1.47266,0.54395,2.64062,1.64844,2.64062c0.6084,0,1.23242-0.47949,1.50488-1.05566V343.08105z"/>
		</g>
	</g>
</g>
<g>
	<g>
		<g>
			<path class="st15" d="M894.31134,169.36705c0,2.75-2.25,5-5,5h-84.41992c-2.75,0-5-2.25-5-5v-60.8882c0-2.75,2.25-5,5-5h84.41992
				c2.75,0,5,2.25,5,5V169.36705z"/>
			<path class="st16" d="M894.31134,169.36705c0,2.75-2.25,5-5,5h-84.41992c-2.75,0-5-2.25-5-5v-60.8882c0-2.75,2.25-5,5-5h84.41992
				c2.75,0,5,2.25,5,5V169.36705z"/>
		</g>
		<g>
			<path class="st17" d="M894.31128,169.36707c0,2.75-2.25,5-5,5h-84.4198c-2.75,0-5-2.25-5-5v-60.88818c0-2.75,2.25-5,5-5h84.4198
				c2.75,0,5,2.25,5,5V169.36707z"/>
		</g>
	</g>
	<g>
		<g>
			<path class="st13" d="M829.78058,140.97946c0.18811,0.32623,0.45325,0.58073,0.75916,0.7533l15.52942,8.96591l0.00049-0.00047
				c0.30298,0.17838,0.6554,0.28067,1.03204,0.28067s0.72955-0.10229,1.03198-0.28067l15.52997-8.96591
				c0.30585-0.17258,0.57007-0.42659,0.75861-0.75282s0.27631-0.68253,0.27289-1.03397v-17.93182l-0.00043-0.00049
				c0.00287-0.35095-0.08484-0.70776-0.27295-1.034c-0.18854-0.32623-0.45374-0.58021-0.75909-0.75326l-15.52991-8.96591v-0.00049
				c-0.30249-0.17839-0.65491-0.28067-1.03156-0.28067c-0.37616,0-0.72858,0.10228-1.03107,0.28067v0.00049l-15.52948,8.96591
				c-0.30585,0.17305-0.57098,0.42706-0.75958,0.7533c-0.18805,0.32623-0.27582,0.68301-0.27289,1.03397l-0.00049,0.00049v17.93182
				c-0.00342,0.35144,0.08435,0.70773,0.2724,1.03397"/>
			<path class="st18" d="M848.13367,131.57446l16.56152-9.56152l-0.00055,0.00024l0.00049,0.00049v17.93182
				c0.00336,0.35144-0.08435,0.70773-0.27295,1.03397c-0.18854,0.32623-0.45276,0.58025-0.75861,0.75282l-15.52991,8.96591
				V131.57446z"/>
			<path class="st19" d="M848.13367,131.57446l16.56152-9.56152l-0.00055,0.00024l0.00049,0.00049v17.93182
				c0.00336,0.35144-0.08435,0.70773-0.27295,1.03397c-0.18854,0.32623-0.45276,0.58025-0.75861,0.75282l-15.52991,8.96591
				V131.57446z"/>
			<path class="st19" d="M847.10126,129.78764l-16.56134-9.56197l0.00055,0.00038l0.00012-0.00066l15.52948-8.96591
				c0.30261-0.17866,0.65509-0.28082,1.03186-0.28063c0.37683,0.00018,0.72888,0.10197,1.03131,0.28059l15.52966,8.96634
				L847.10126,129.78764z"/>
			<path class="st19" d="M846.06909,131.57446l-16.56152-9.56152l0.00055,0.00024l-0.00049,0.00049v17.93182
				c-0.00336,0.35144,0.08435,0.70773,0.27295,1.03397c0.18854,0.32623,0.45276,0.58025,0.75861,0.75282l15.52991,8.96591V131.57446
				z"/>
		</g>
		<g>
			<path class="st4" d="M836.30957,155.97461h3.63379c2.09668,0,3.15332,1.53711,3.15332,3.31348
				c0,1.79297-1.05664,3.33008-3.15332,3.33008h-1.85645v4.0332h-1.77734V155.97461z M839.73535,157.52734h-1.64844v3.52148h1.64844
				c0.94434,0,1.55273-0.7041,1.55273-1.76074C841.28809,158.23242,840.67969,157.52734,839.73535,157.52734z"/>
			<path class="st4" d="M843.76465,162.77734c0-2.17676,1.15332-4.04883,3.3457-4.04883c2.19336,0,3.3457,1.87207,3.3457,4.04883
				c0,2.17773-1.15234,4.06641-3.3457,4.06641C844.91797,166.84375,843.76465,164.95508,843.76465,162.77734z M848.80664,162.77734
				c0-1.39258-0.52734-2.64062-1.69629-2.64062c-1.16797,0-1.69629,1.24805-1.69629,2.64062s0.52832,2.65723,1.69629,2.65723
				C848.2793,165.43457,848.80664,164.16992,848.80664,162.77734z"/>
			<path class="st4" d="M856.375,165.62695c-0.46484,0.76855-1.2168,1.2168-1.98535,1.2168
				c-1.72852,0-2.81738-1.56934-2.81738-4.0498c0-2.44922,1.07324-4.06543,2.81738-4.06543
				c0.75293,0,1.52051,0.39941,1.98535,1.23242v-3.98633h1.60059v10.67676H856.375V165.62695z M856.375,161.19336
				c-0.27246-0.57617-0.89648-1.05664-1.50488-1.05664c-1.10449,0-1.64844,1.15234-1.64844,2.65723
				c0,1.47266,0.54395,2.64062,1.64844,2.64062c0.6084,0,1.23242-0.47949,1.50488-1.05566V161.19336z"/>
		</g>
	</g>
</g>
<g>
	<g>
		<g>
			<path class="st15" d="M894.31134,260.3107c0,2.75-2.25,5-5,5h-84.41992c-2.75,0-5-2.25-5-5v-60.8882c0-2.75,2.25-5,5-5h84.41992
				c2.75,0,5,2.25,5,5V260.3107z"/>
			<path class="st16" d="M894.31134,260.3107c0,2.75-2.25,5-5,5h-84.41992c-2.75,0-5-2.25-5-5v-60.8882c0-2.75,2.25-5,5-5h84.41992
				c2.75,0,5,2.25,5,5V260.3107z"/>
		</g>
		<g>
			<path class="st17" d="M894.31128,260.3107c0,2.75-2.25,5-5,5h-84.4198c-2.75,0-5-2.25-5-5v-60.88821c0-2.75,2.25-5,5-5h84.4198
				c2.75,0,5,2.25,5,5V260.3107z"/>
		</g>
	</g>
	<g>
		<g>
			<path class="st13" d="M829.78058,231.92311c0.18811,0.32623,0.45325,0.58073,0.75916,0.7533l15.52942,8.96591l0.00049-0.00049
				c0.30298,0.17839,0.6554,0.28067,1.03204,0.28067s0.72955-0.10228,1.03198-0.28067l15.52997-8.9659
				c0.30585-0.17258,0.57007-0.42659,0.75861-0.75282s0.27631-0.68253,0.27289-1.03397v-17.93182l-0.00043-0.00049
				c0.00287-0.35095-0.08484-0.70776-0.27295-1.034c-0.18854-0.32625-0.45374-0.58022-0.75909-0.75327l-15.52991-8.96591v-0.00049
				c-0.30249-0.17839-0.65491-0.28065-1.03156-0.28065c-0.37616,0-0.72858,0.10226-1.03107,0.28065v0.00049l-15.52948,8.96591
				c-0.30585,0.17305-0.57098,0.42706-0.75958,0.7533c-0.18805,0.32623-0.27582,0.68301-0.27289,1.03397l-0.00049,0.00049v17.93182
				c-0.00342,0.35144,0.08435,0.70773,0.2724,1.03397"/>
			<path class="st18" d="M848.13367,222.51811l16.56152-9.56152l-0.00055,0.00024l0.00049,0.00049v17.93182
				c0.00336,0.35144-0.08435,0.70773-0.27295,1.03397c-0.18854,0.32623-0.45276,0.58025-0.75861,0.75282l-15.52991,8.9659V222.51811
				z"/>
			<path class="st19" d="M848.13367,222.51811l16.56152-9.56152l-0.00055,0.00024l0.00049,0.00049v17.93182
				c0.00336,0.35144-0.08435,0.70773-0.27295,1.03397c-0.18854,0.32623-0.45276,0.58025-0.75861,0.75282l-15.52991,8.9659V222.51811
				z"/>
			<path class="st19" d="M847.10126,220.73129l-16.56134-9.56197l0.00055,0.00038l0.00012-0.00066l15.52948-8.96591
				c0.30261-0.17867,0.65509-0.28082,1.03186-0.28064c0.37683,0.00018,0.72888,0.10197,1.03131,0.28058l15.52966,8.96634
				L847.10126,220.73129z"/>
			<path class="st19" d="M846.06909,222.51811l-16.56152-9.56152l0.00055,0.00024l-0.00049,0.00049v17.93182
				c-0.00336,0.35144,0.08435,0.70773,0.27295,1.03397c0.18854,0.32623,0.45276,0.58025,0.75861,0.75282l15.52991,8.9659V222.51811z
				"/>
		</g>
		<g>
			<path class="st4" d="M836.30957,246.91846h3.63379c2.09668,0,3.15332,1.53711,3.15332,3.31348
				c0,1.79297-1.05664,3.33008-3.15332,3.33008h-1.85645v4.0332h-1.77734V246.91846z M839.73535,248.47119h-1.64844v3.52148h1.64844
				c0.94434,0,1.55273-0.7041,1.55273-1.76074C841.28809,249.17627,840.67969,248.47119,839.73535,248.47119z"/>
			<path class="st4" d="M843.76465,253.72119c0-2.17676,1.15332-4.04883,3.3457-4.04883c2.19336,0,3.3457,1.87207,3.3457,4.04883
				c0,2.17773-1.15234,4.06641-3.3457,4.06641C844.91797,257.7876,843.76465,255.89893,843.76465,253.72119z M848.80664,253.72119
				c0-1.39258-0.52734-2.64062-1.69629-2.64062c-1.16797,0-1.69629,1.24805-1.69629,2.64062s0.52832,2.65723,1.69629,2.65723
				C848.2793,256.37842,848.80664,255.11377,848.80664,253.72119z"/>
			<path class="st4" d="M856.375,256.5708c-0.46484,0.76855-1.2168,1.2168-1.98535,1.2168
				c-1.72852,0-2.81738-1.56934-2.81738-4.0498c0-2.44922,1.07324-4.06543,2.81738-4.06543
				c0.75293,0,1.52051,0.39941,1.98535,1.23242v-3.98633h1.60059v10.67676H856.375V256.5708z M856.375,252.13721
				c-0.27246-0.57617-0.89648-1.05664-1.50488-1.05664c-1.10449,0-1.64844,1.15234-1.64844,2.65723
				c0,1.47266,0.54395,2.64062,1.64844,2.64062c0.6084,0,1.23242-0.47949,1.50488-1.05566V252.13721z"/>
		</g>
	</g>
</g>
<g>
	<path class="st13" d="M934,694.93909c0,6.91333-5.65637,12.5697-12.5697,12.5697H772.77252
		c-6.91333,0-12.5697-5.65637-12.5697-12.5697V413.8241c0-6.91333,5.65637-12.5697,12.5697-12.5697H921.4303
		c6.91333,0,12.5697,5.65637,12.5697,12.5697V694.93909z"/>
	<path class="st14" d="M934,694.93909c0,6.91333-5.65637,12.5697-12.5697,12.5697H772.77252
		c-6.91333,0-12.5697-5.65637-12.5697-12.5697V413.8241c0-6.91333,5.65637-12.5697,12.5697-12.5697H921.4303
		c6.91333,0,12.5697,5.65637,12.5697,12.5697V694.93909z"/>
</g>
<g>
	<g>
		<g>
			<path class="st15" d="M894.31134,687.50885c0,2.75-2.25,5-5,5h-84.41992c-2.75,0-5-2.25-5-5v-60.88818c0-2.75,2.25-5,5-5
				h84.41992c2.75,0,5,2.25,5,5V687.50885z"/>
			<path class="st16" d="M894.31134,687.50885c0,2.75-2.25,5-5,5h-84.41992c-2.75,0-5-2.25-5-5v-60.88818c0-2.75,2.25-5,5-5
				h84.41992c2.75,0,5,2.25,5,5V687.50885z"/>
		</g>
		<g>
			<path class="st17" d="M894.31128,687.50885c0,2.75-2.25,5-5,5h-84.4198c-2.75,0-5-2.25-5-5v-60.88818c0-2.75,2.25-5,5-5h84.4198
				c2.75,0,5,2.25,5,5V687.50885z"/>
		</g>
	</g>
	<g>
		<g>
			<path class="st13" d="M829.78058,659.12128c0.18811,0.32623,0.45325,0.58069,0.75916,0.7533l15.52942,8.96588l0.00049-0.00049
				c0.30298,0.17841,0.6554,0.2807,1.03204,0.2807s0.72955-0.10229,1.03198-0.2807l15.52997-8.96588
				c0.30585-0.17261,0.57007-0.42657,0.75861-0.75281s0.27631-0.68256,0.27289-1.034v-17.93182l-0.00043-0.00049
				c0.00287-0.35095-0.08484-0.70776-0.27295-1.034c-0.18854-0.32623-0.45374-0.5802-0.75909-0.75323l-15.52991-8.96594v-0.00049
				c-0.30249-0.17841-0.65491-0.28064-1.03156-0.28064c-0.37616,0-0.72858,0.10223-1.03107,0.28064v0.00049l-15.52948,8.96594
				c-0.30585,0.17303-0.57098,0.42706-0.75958,0.7533c-0.18805,0.32623-0.27582,0.68298-0.27289,1.03394l-0.00049,0.00049v17.93182
				c-0.00342,0.35144,0.08435,0.70776,0.2724,1.034"/>
			<path class="st18" d="M848.13367,649.71625l16.56152-9.56152l-0.00055,0.00024l0.00049,0.00049v17.93182
				c0.00336,0.35144-0.08435,0.70776-0.27295,1.034c-0.18854,0.32623-0.45276,0.5802-0.75861,0.75281l-15.52991,8.96588V649.71625z"
				/>
			<path class="st19" d="M848.13367,649.71625l16.56152-9.56152l-0.00055,0.00024l0.00049,0.00049v17.93182
				c0.00336,0.35144-0.08435,0.70776-0.27295,1.034c-0.18854,0.32623-0.45276,0.5802-0.75861,0.75281l-15.52991,8.96588V649.71625z"
				/>
			<path class="st19" d="M847.10126,647.92944l-16.56134-9.56195l0.00055,0.00037l0.00012-0.00067l15.52948-8.96594
				c0.30261-0.17865,0.65509-0.28076,1.03186-0.28058c0.37683,0.00018,0.72888,0.10193,1.03131,0.28058l15.52966,8.96631
				L847.10126,647.92944z"/>
			<path class="st19" d="M846.06909,649.71625l-16.56152-9.56152l0.00055,0.00024l-0.00049,0.00049v17.93182
				c-0.00336,0.35144,0.08435,0.70776,0.27295,1.034c0.18854,0.32623,0.45276,0.5802,0.75861,0.75281l15.52991,8.96588V649.71625z"
				/>
		</g>
		<g>
			<path class="st4" d="M836.30957,674.1167h3.63379c2.09668,0,3.15332,1.53711,3.15332,3.31348
				c0,1.79297-1.05664,3.33008-3.15332,3.33008h-1.85645v4.0332h-1.77734V674.1167z M839.73535,675.66943h-1.64844v3.52148h1.64844
				c0.94434,0,1.55273-0.7041,1.55273-1.76074C841.28809,676.37451,840.67969,675.66943,839.73535,675.66943z"/>
			<path class="st4" d="M843.76465,680.91943c0-2.17676,1.15332-4.04883,3.3457-4.04883c2.19336,0,3.3457,1.87207,3.3457,4.04883
				c0,2.17773-1.15234,4.06641-3.3457,4.06641C844.91797,684.98584,843.76465,683.09717,843.76465,680.91943z M848.80664,680.91943
				c0-1.39258-0.52734-2.64062-1.69629-2.64062c-1.16797,0-1.69629,1.24805-1.69629,2.64062s0.52832,2.65723,1.69629,2.65723
				C848.2793,683.57666,848.80664,682.31201,848.80664,680.91943z"/>
			<path class="st4" d="M856.375,683.76904c-0.46484,0.76855-1.2168,1.2168-1.98535,1.2168
				c-1.72852,0-2.81738-1.56934-2.81738-4.0498c0-2.44922,1.07324-4.06543,2.81738-4.06543
				c0.75293,0,1.52051,0.39941,1.98535,1.23242v-3.98633h1.60059v10.67676H856.375V683.76904z M856.375,679.33545
				c-0.27246-0.57617-0.89648-1.05664-1.50488-1.05664c-1.10449,0-1.64844,1.15234-1.64844,2.65723
				c0,1.47266,0.54395,2.64062,1.64844,2.64062c0.6084,0,1.23242-0.47949,1.50488-1.05566V679.33545z"/>
		</g>
	</g>
</g>
<g>
	<g>
		<g>
			<path class="st15" d="M894.31134,505.62146c0,2.75-2.25,5-5,5h-84.41992c-2.75,0-5-2.25-5-5v-60.88821c0-2.75,2.25-5,5-5
				h84.41992c2.75,0,5,2.25,5,5V505.62146z"/>
			<path class="st16" d="M894.31134,505.62146c0,2.75-2.25,5-5,5h-84.41992c-2.75,0-5-2.25-5-5v-60.88821c0-2.75,2.25-5,5-5
				h84.41992c2.75,0,5,2.25,5,5V505.62146z"/>
		</g>
		<g>
			<path class="st17" d="M894.31128,505.62146c0,2.75-2.25,5-5,5h-84.4198c-2.75,0-5-2.25-5-5v-60.88821c0-2.75,2.25-5,5-5h84.4198
				c2.75,0,5,2.25,5,5V505.62146z"/>
		</g>
	</g>
	<g>
		<g>
			<path class="st13" d="M829.78058,477.23386c0.18811,0.32623,0.45325,0.58072,0.75916,0.7533l15.52942,8.96591l0.00049-0.00049
				c0.30298,0.17841,0.6554,0.28067,1.03204,0.28067s0.72955-0.10226,1.03198-0.28067l15.52997-8.96591
				c0.30585-0.17255,0.57007-0.42657,0.75861-0.75281s0.27631-0.68253,0.27289-1.03397v-17.93182l-0.00043-0.00049
				c0.00287-0.35095-0.08484-0.70776-0.27295-1.034c-0.18854-0.32623-0.45374-0.5802-0.75909-0.75327l-15.52991-8.96591v-0.00049
				c-0.30249-0.17838-0.65491-0.28067-1.03156-0.28067c-0.37616,0-0.72858,0.10229-1.03107,0.28067v0.00049l-15.52948,8.96591
				c-0.30585,0.17307-0.57098,0.42706-0.75958,0.7533c-0.18805,0.32623-0.27582,0.68301-0.27289,1.03397l-0.00049,0.00049v17.93182
				c-0.00342,0.35144,0.08435,0.70773,0.2724,1.03397"/>
			<path class="st18" d="M848.13367,467.82886l16.56152-9.56152l-0.00055,0.00024l0.00049,0.00049v17.93182
				c0.00336,0.35144-0.08435,0.70773-0.27295,1.03397c-0.18854,0.32623-0.45276,0.58026-0.75861,0.75281l-15.52991,8.96591
				V467.82886z"/>
			<path class="st19" d="M848.13367,467.82886l16.56152-9.56152l-0.00055,0.00024l0.00049,0.00049v17.93182
				c0.00336,0.35144-0.08435,0.70773-0.27295,1.03397c-0.18854,0.32623-0.45276,0.58026-0.75861,0.75281l-15.52991,8.96591
				V467.82886z"/>
			<path class="st19" d="M847.10126,466.04202l-16.56134-9.56195l0.00055,0.0004l0.00012-0.00067l15.52948-8.96591
				c0.30261-0.17865,0.65509-0.28082,1.03186-0.28064c0.37683,0.00018,0.72888,0.10199,1.03131,0.28058l15.52966,8.96634
				L847.10126,466.04202z"/>
			<path class="st19" d="M846.06909,467.82886l-16.56152-9.56152l0.00055,0.00024l-0.00049,0.00049v17.93182
				c-0.00336,0.35144,0.08435,0.70773,0.27295,1.03397c0.18854,0.32623,0.45276,0.58026,0.75861,0.75281l15.52991,8.96591V467.82886
				z"/>
		</g>
		<g>
			<path class="st4" d="M836.30957,492.229h3.63379c2.09668,0,3.15332,1.53711,3.15332,3.31348
				c0,1.79297-1.05664,3.33008-3.15332,3.33008h-1.85645v4.0332h-1.77734V492.229z M839.73535,493.78174h-1.64844v3.52148h1.64844
				c0.94434,0,1.55273-0.7041,1.55273-1.76074C841.28809,494.48682,840.67969,493.78174,839.73535,493.78174z"/>
			<path class="st4" d="M843.76465,499.03174c0-2.17676,1.15332-4.04883,3.3457-4.04883c2.19336,0,3.3457,1.87207,3.3457,4.04883
				c0,2.17773-1.15234,4.06641-3.3457,4.06641C844.91797,503.09814,843.76465,501.20947,843.76465,499.03174z M848.80664,499.03174
				c0-1.39258-0.52734-2.64062-1.69629-2.64062c-1.16797,0-1.69629,1.24805-1.69629,2.64062s0.52832,2.65723,1.69629,2.65723
				C848.2793,501.68896,848.80664,500.42432,848.80664,499.03174z"/>
			<path class="st4" d="M856.375,501.88135c-0.46484,0.76855-1.2168,1.2168-1.98535,1.2168
				c-1.72852,0-2.81738-1.56934-2.81738-4.0498c0-2.44922,1.07324-4.06543,2.81738-4.06543
				c0.75293,0,1.52051,0.39941,1.98535,1.23242V492.229h1.60059v10.67676H856.375V501.88135z M856.375,497.44775
				c-0.27246-0.57617-0.89648-1.05664-1.50488-1.05664c-1.10449,0-1.64844,1.15234-1.64844,2.65723
				c0,1.47266,0.54395,2.64062,1.64844,2.64062c0.6084,0,1.23242-0.47949,1.50488-1.05566V497.44775z"/>
		</g>
	</g>
</g>
<g>
	<g>
		<g>
			<path class="st15" d="M894.31134,596.56512c0,2.75-2.25,5-5,5h-84.41992c-2.75,0-5-2.25-5-5v-60.88824c0-2.75,2.25-5,5-5
				h84.41992c2.75,0,5,2.25,5,5V596.56512z"/>
			<path class="st16" d="M894.31134,596.56512c0,2.75-2.25,5-5,5h-84.41992c-2.75,0-5-2.25-5-5v-60.88824c0-2.75,2.25-5,5-5
				h84.41992c2.75,0,5,2.25,5,5V596.56512z"/>
		</g>
		<g>
			<path class="st17" d="M894.31128,596.56506c0,2.75-2.25,5-5,5h-84.4198c-2.75,0-5-2.25-5-5v-60.88818c0-2.75,2.25-5,5-5h84.4198
				c2.75,0,5,2.25,5,5V596.56506z"/>
		</g>
	</g>
	<g>
		<g>
			<path class="st13" d="M829.78058,568.17749c0.18811,0.32623,0.45325,0.58075,0.75916,0.7533l15.52942,8.96594l0.00049-0.00049
				c0.30298,0.17841,0.6554,0.28064,1.03204,0.28064s0.72955-0.10223,1.03198-0.28064l15.52997-8.96594
				c0.30585-0.17255,0.57007-0.42657,0.75861-0.75281s0.27631-0.6825,0.27289-1.03394v-17.93182l-0.00043-0.00049
				c0.00287-0.35095-0.08484-0.70776-0.27295-1.034c-0.18854-0.32623-0.45374-0.5802-0.75909-0.7533l-15.52991-8.96588v-0.00049
				c-0.30249-0.17841-0.65491-0.2807-1.03156-0.2807c-0.37616,0-0.72858,0.10229-1.03107,0.2807v0.00049l-15.52948,8.96588
				c-0.30585,0.1731-0.57098,0.42706-0.75958,0.7533c-0.18805,0.32623-0.27582,0.68304-0.27289,1.034l-0.00049,0.00049v17.93182
				c-0.00342,0.35144,0.08435,0.7077,0.2724,1.03394"/>
			<path class="st18" d="M848.13367,558.77252l16.56152-9.56152l-0.00055,0.00024l0.00049,0.00049v17.93182
				c0.00336,0.35144-0.08435,0.7077-0.27295,1.03394c-0.18854,0.32623-0.45276,0.58026-0.75861,0.75281l-15.52991,8.96594V558.77252
				z"/>
			<path class="st19" d="M848.13367,558.77252l16.56152-9.56152l-0.00055,0.00024l0.00049,0.00049v17.93182
				c0.00336,0.35144-0.08435,0.7077-0.27295,1.03394c-0.18854,0.32623-0.45276,0.58026-0.75861,0.75281l-15.52991,8.96594V558.77252
				z"/>
			<path class="st19" d="M847.10126,556.98566l-16.56134-9.56195l0.00055,0.00043l0.00012-0.00067l15.52948-8.96594
				c0.30261-0.17865,0.65509-0.28082,1.03186-0.28064c0.37683,0.00018,0.72888,0.10199,1.03131,0.28058l15.52966,8.96637
				L847.10126,556.98566z"/>
			<path class="st19" d="M846.06909,558.77252l-16.56152-9.56152l0.00055,0.00024l-0.00049,0.00049v17.93182
				c-0.00336,0.35144,0.08435,0.7077,0.27295,1.03394c0.18854,0.32623,0.45276,0.58026,0.75861,0.75281l15.52991,8.96594V558.77252z
				"/>
		</g>
		<g>
			<path class="st4" d="M836.30957,583.17285h3.63379c2.09668,0,3.15332,1.53711,3.15332,3.31348
				c0,1.79297-1.05664,3.33008-3.15332,3.33008h-1.85645v4.0332h-1.77734V583.17285z M839.73535,584.72559h-1.64844v3.52148h1.64844
				c0.94434,0,1.55273-0.7041,1.55273-1.76074C841.28809,585.43066,840.67969,584.72559,839.73535,584.72559z"/>
			<path class="st4" d="M843.76465,589.97559c0-2.17676,1.15332-4.04883,3.3457-4.04883c2.19336,0,3.3457,1.87207,3.3457,4.04883
				c0,2.17773-1.15234,4.06641-3.3457,4.06641C844.91797,594.04199,843.76465,592.15332,843.76465,589.97559z M848.80664,589.97559
				c0-1.39258-0.52734-2.64062-1.69629-2.64062c-1.16797,0-1.69629,1.24805-1.69629,2.64062s0.52832,2.65723,1.69629,2.65723
				C848.2793,592.63281,848.80664,591.36816,848.80664,589.97559z"/>
			<path class="st4" d="M856.375,592.8252c-0.46484,0.76855-1.2168,1.2168-1.98535,1.2168
				c-1.72852,0-2.81738-1.56934-2.81738-4.0498c0-2.44922,1.07324-4.06543,2.81738-4.06543
				c0.75293,0,1.52051,0.39941,1.98535,1.23242v-3.98633h1.60059v10.67676H856.375V592.8252z M856.375,588.3916
				c-0.27246-0.57617-0.89648-1.05664-1.50488-1.05664c-1.10449,0-1.64844,1.15234-1.64844,2.65723
				c0,1.47266,0.54395,2.64062,1.64844,2.64062c0.6084,0,1.23242-0.47949,1.50488-1.05566V588.3916z"/>
		</g>
	</g>
</g>
<line class="st6" x1="653.98743" y1="386.25439" x2="588.87158" y2="386.25439"/>
<g>
	<path class="st6" d="M668.98737,233.1272c0-8.28429,6.71576-14.99998,15.00006-14.99998"/>
	<path class="st6" d="M668.98737,371.25439c0,8.28427-6.7157,15-14.99994,15"/>
	<line class="st6" x1="668.98737" y1="371.25439" x2="668.98737" y2="233.1272"/>
	<g>
		<g>
			<line class="st5" x1="750.20282" y1="218.1272" x2="745.24524" y2="213.16966"/>
			<line class="st5" x1="750.20282" y1="218.1272" x2="745.24524" y2="223.08473"/>
		</g>
		<line class="st6" x1="683.98743" y1="218.1272" x2="750.20282" y2="218.1272"/>
	</g>
</g>
<g>
	<line class="st20" x1="653.98743" y1="405.52432" x2="588.87158" y2="405.52432"/>
	<path class="st20" d="M668.98737,539.38159c0,8.2843,6.71576,15,15.00006,15"/>
	<path class="st20" d="M668.98743,420.52432c0-8.2843-6.71576-15-15-15"/>
	<line class="st20" x1="668.98737" y1="420.52432" x2="668.98737" y2="539.38159"/>
	<g>
		<g>
			<line class="st21" x1="750.20282" y1="554.38159" x2="745.24524" y2="559.33911"/>
			<line class="st21" x1="750.20282" y1="554.38159" x2="745.24524" y2="549.42407"/>
		</g>
		<line class="st20" x1="683.98743" y1="554.38159" x2="750.20282" y2="554.38159"/>
	</g>
</g>
<g>
	<g>
		<path class="st22" d="M577.77203,410.15231v9.28397c0,2.37497-1.94318,4.31812-4.31812,4.31812h-9.284
			c-2.37494,0-4.31812-1.94315-4.31812-4.31812v-9.28397c0-2.37497,1.94318-4.31815,4.31812-4.31815h9.284
			C575.82886,405.83417,577.77203,407.77734,577.77203,410.15231z"/>
		<path class="st22" d="M577.77203,381.61243v9.28397c0,2.37497-1.94318,4.31812-4.31812,4.31812h-9.284
			c-2.37494,0-4.31812-1.94315-4.31812-4.31812v-9.28397c0-2.37497,1.94318-4.31815,4.31812-4.31815h9.284
			C575.82886,377.29428,577.77203,379.23746,577.77203,381.61243z"/>
		<path class="st22" d="M577.77203,353.07251v9.284c0,2.37497-1.94318,4.31812-4.31812,4.31812h-9.284
			c-2.37494,0-4.31812-1.94315-4.31812-4.31812v-9.284c0-2.37497,1.94318-4.31812,4.31812-4.31812h9.284
			C575.82886,348.75439,577.77203,350.69754,577.77203,353.07251z"/>
	</g>
	<g>
		<line class="st5" x1="544.09064" y1="386.25439" x2="559.85181" y2="386.25439"/>
		<line class="st5" x1="543.2511" y1="393.66953" x2="561.02246" y2="407.20377"/>
		<line class="st5" x1="543.2511" y1="378.83926" x2="561.0224" y2="365.30508"/>
	</g>
	<g>
		<path class="st13" d="M543.03558,409.47464c0,4.29843-3.51691,7.81537-7.81537,7.81537h-46.44049
			c-4.29843,0-7.81537-3.51694-7.81537-7.81537v-46.44046c0-4.29846,3.51694-7.81537,7.81537-7.81537h46.44049
			c4.29846,0,7.81537,3.51691,7.81537,7.81537V409.47464z"/>
		<path class="st23" d="M543.03558,409.47464c0,4.29843-3.51691,7.81537-7.81537,7.81537h-46.44049
			c-4.29843,0-7.81537-3.51694-7.81537-7.81537v-46.44046c0-4.29846,3.51694-7.81537,7.81537-7.81537h46.44049
			c4.29846,0,7.81537,3.51691,7.81537,7.81537V409.47464z"/>
	</g>
</g>
<g>
	<path class="st4" d="M778.99121,411.24023h5.04102c2.26074,0,3.44141,1.5,3.44141,3.40039
		c0,1.68066-0.9209,2.74121-2.10059,3.06055c1.32031,0.2002,2.32031,1.64062,2.32031,3.28125
		c0,2.08008-1.16016,3.60059-3.50098,3.60059h-5.20117V411.24023z M783.55273,416.80176c1.12012,0,1.63965-0.74023,1.63965-1.80078
		c0-1.04004-0.51953-1.82031-1.63965-1.82031h-2.34082v3.62109H783.55273z M783.63281,422.62305
		c1.17969,0,1.78027-0.7207,1.78027-1.94043c0-1.06055-0.58008-1.9209-1.78027-1.9209h-2.4209v3.86133H783.63281z"/>
	<path class="st4" d="M794.69238,423.60254c-0.58008,0.80078-1.56055,1.2207-2.54102,1.2207
		c-1.55957,0-2.95996-1.16016-2.95996-3.2207c0-2.08105,1.40039-3.14062,2.95996-3.14062c0.98047,0,1.98047,0.37988,2.54102,1.16016
		v-1.40039c0-1.16016-0.68066-1.84082-1.88086-1.84082c-0.85938,0-1.66016,0.34082-2.40039,1.10059l-0.78027-1.40039
		c0.98047-0.98047,2.30078-1.40039,3.54102-1.40039c2.02051,0,3.50098,0.94043,3.50098,3.30078v6.60156h-1.98047V423.60254z
		 M794.69238,420.92188c-0.37988-0.67969-1.10059-1.08008-1.82031-1.08008c-1.04004,0-1.68066,0.76074-1.68066,1.80078
		s0.64062,1.7998,1.68066,1.7998c0.71973,0,1.44043-0.39941,1.82031-1.05957V420.92188z"/>
	<path class="st4" d="M804.37207,418.00195c0-1.14062-0.51953-1.56055-1.37988-1.56055s-1.60059,0.66016-1.96094,1.33984v6.80176h-2
		v-9.66211h2v1.30078c0.52051-0.78027,1.60059-1.54102,2.80078-1.54102c1.74023,0,2.54102,0.95996,2.54102,2.62109v7.28125h-2.00098
		V418.00195z"/>
	<path class="st4" d="M811.8916,420.54199l-1.16016,1.56055v2.48047h-2.00098v-13.34277h2.00098v8.42188l3.40039-4.74121h2.32031
		l-3.2002,4.34082l3.26074,5.32129h-2.34082L811.8916,420.54199z"/>
	<path class="st4" d="M817.59082,412.08008c0-0.7002,0.58008-1.25977,1.25977-1.25977c0.68066,0,1.24023,0.55957,1.24023,1.25977
		c0,0.68066-0.55957,1.24023-1.24023,1.24023C818.1709,413.32031,817.59082,412.76074,817.59082,412.08008z M817.85059,414.9209h2
		v9.66211h-2V414.9209z"/>
	<path class="st4" d="M827.55176,418.00195c0-1.14062-0.52051-1.56055-1.38086-1.56055s-1.60059,0.66016-1.95996,1.33984v6.80176
		h-2.00098v-9.66211h2.00098v1.30078c0.51953-0.78027,1.60059-1.54102,2.80078-1.54102c1.74023,0,2.54004,0.95996,2.54004,2.62109
		v7.28125h-2V418.00195z"/>
	<path class="st4" d="M832.65039,425.74316c0.66016,0.7207,1.5,1.08008,2.5,1.08008c1.2002,0,2.28125-0.66016,2.28125-2.41992
		v-1.38086c-0.58105,0.98047-1.52051,1.58008-2.48145,1.58008c-2.16016,0-3.52051-1.86035-3.52051-4.96094
		c0-3.06055,1.34082-4.96094,3.52051-4.96094c0.94043,0,1.88086,0.5,2.48145,1.54102v-1.30078h1.97949v9.32227
		c0,3.34082-2.08008,4.26074-4.16016,4.26074c-1.38086,0-2.46094-0.32031-3.4209-1.2207L832.65039,425.74316z M837.43164,417.76172
		c-0.34082-0.7207-1.12109-1.32031-1.88086-1.32031c-1.37988,0-2.06055,1.33984-2.06055,3.2002
		c0,1.84082,0.68066,3.18066,2.06055,3.18066c0.75977,0,1.54004-0.59961,1.88086-1.32031V417.76172z"/>
	<path class="st4" d="M852.4707,421.94238h-4.58105l-0.71973,2.64062h-2.30078l3.98145-13.34277h2.66016l3.98047,13.34277h-2.2998
		L852.4707,421.94238z M848.34961,419.98242h3.68164l-1.84082-6.76172L848.34961,419.98242z"/>
	<path class="st4" d="M856.72949,428.26367V414.9209h2v1.28027c0.56055-0.95996,1.50098-1.52051,2.48047-1.52051
		c2.18066,0,3.52148,1.94043,3.52148,5.06152c0,3.08008-1.34082,5.08105-3.52148,5.08105c-0.95996,0-1.90039-0.5-2.48047-1.54004
		v4.98047H856.72949z M860.61035,416.44141c-0.76074,0-1.54102,0.58008-1.88086,1.32031v3.96094
		c0.33984,0.71973,1.12012,1.33984,1.88086,1.33984c1.37988,0,2.06055-1.45996,2.06055-3.32031
		S861.99023,416.44141,860.61035,416.44141z"/>
	<path class="st4" d="M866.58887,428.26367V414.9209h2.00098v1.28027c0.55957-0.95996,1.5-1.52051,2.48047-1.52051
		c2.18066,0,3.52051,1.94043,3.52051,5.06152c0,3.08008-1.33984,5.08105-3.52051,5.08105c-0.95996,0-1.90039-0.5-2.48047-1.54004
		v4.98047H866.58887z M870.46973,416.44141c-0.75977,0-1.54004,0.58008-1.87988,1.32031v3.96094
		c0.33984,0.71973,1.12012,1.33984,1.87988,1.33984c1.38086,0,2.06055-1.45996,2.06055-3.32031
		S871.85059,416.44141,870.46973,416.44141z"/>
	<path class="st4" d="M879.54883,411.24023h2.40039l2.9209,10.72266l2.90039-10.72266h2.40039l-3.98047,13.34277h-2.66113
		L879.54883,411.24023z"/>
	<path class="st4" d="M898.02832,414.12109l-2.04004,2.14062l-1.2998-1.36035l3.62012-3.66113h1.9209v13.34277h-2.20117V414.12109z"
		/>
	<path class="st4" d="M903.92871,422.10254c0.74023,0,1.33984,0.62012,1.33984,1.33984c0,0.74023-0.59961,1.36035-1.33984,1.36035
		c-0.7207,0-1.34082-0.62012-1.34082-1.36035C902.58789,422.72266,903.20801,422.10254,903.92871,422.10254z"/>
	<path class="st4" d="M909.68848,417.70117c-1.24023-0.45996-2.40039-1.54004-2.40039-3.2207
		c0-2.40039,2.06055-3.44043,4.14062-3.44043c2.06055,0,4.1416,1.04004,4.1416,3.44043c0,1.68066-1.18066,2.76074-2.4209,3.2207
		c1.33984,0.52051,2.60059,1.84082,2.60059,3.52148c0,2.28027-1.82031,3.60059-4.32129,3.60059
		c-2.52051,0-4.32031-1.30078-4.32031-3.60059C907.1084,419.54199,908.34863,418.22168,909.68848,417.70117z M911.42871,418.60156
		c-0.55957,0.08008-2.10059,0.84082-2.10059,2.32031c0,1.24023,0.9209,1.9209,2.10059,1.9209
		c1.14062,0,2.10059-0.68066,2.10059-1.9209C913.5293,419.44238,911.98926,418.68164,911.42871,418.60156z M911.42871,413.00098
		c-1.16016,0-1.91992,0.7002-1.91992,1.83984c0,1.34082,1.40039,1.9209,1.91992,2.04102
		c0.52051-0.12012,1.9209-0.7002,1.9209-2.04102C913.34961,413.70117,912.56934,413.00098,911.42871,413.00098z"/>
</g>
<g>
	<g>
		<line class="st21" x1="470.96439" y1="405.52429" x2="466.00687" y2="400.56674"/>
		<line class="st21" x1="470.96439" y1="405.52429" x2="466.00687" y2="410.48184"/>
	</g>
	<line class="st20" x1="329.21939" y1="405.52429" x2="470.96439" y2="405.52429"/>
	<path class="st20" d="M329.21939,405.52432c-8.28427,0-15,6.7157-15,15"/>
	<line class="st20" x1="314.2027" y1="420.52432" x2="314.2027" y2="516.12097"/>
</g>
<g>
	<g>
		<path class="st4" d="M484.271,427.28809h2.2207v13.34277h-2.2207V427.28809z"/>
		<path class="st4" d="M494.29199,434.0498c0-1.14062-0.52002-1.56055-1.38037-1.56055s-1.60059,0.66016-1.96045,1.33984v6.80176
			h-2.00049v-9.66211h2.00049v1.30078c0.52002-0.78027,1.60059-1.54102,2.80078-1.54102c1.74023,0,2.54053,0.95996,2.54053,2.62109
			v7.28125h-2.00049V434.0498z"/>
		<path class="st4" d="M499.39062,441.79102c0.66016,0.7207,1.50049,1.08008,2.50049,1.08008
			c1.2002,0,2.28076-0.66016,2.28076-2.41992v-1.38086c-0.58057,0.98047-1.52051,1.58008-2.48096,1.58008
			c-2.16016,0-3.52051-1.86035-3.52051-4.96094c0-3.06055,1.34033-4.96094,3.52051-4.96094c0.94043,0,1.88037,0.5,2.48096,1.54102
			v-1.30078h1.97998v9.32227c0,3.34082-2.08008,4.26074-4.16064,4.26074c-1.38037,0-2.46045-0.32031-3.4209-1.2207
			L499.39062,441.79102z M504.17188,433.80957c-0.34033-0.7207-1.12061-1.32031-1.88086-1.32031
			c-1.37988,0-2.06006,1.33984-2.06006,3.2002c0,1.84082,0.68018,3.18066,2.06006,3.18066
			c0.76025,0,1.54053-0.59961,1.88086-1.32031V433.80957z"/>
		<path class="st4" d="M508.51025,430.96875h2.00049v1.41992c0.56006-0.93945,1.58057-1.63965,2.66016-1.63965v1.98047
			c-0.16016-0.04004-0.33984-0.06055-0.51953-0.06055c-0.82031,0-1.74072,0.62012-2.14062,1.34082v6.62109h-2.00049V430.96875z"/>
		<path class="st4" d="M518.33105,430.72852c2.62012,0,4.02051,2.2207,4.02051,5.1416v0.58008h-6.14062
			c0.08008,1.58008,0.95996,2.78027,2.52051,2.78027c0.75977,0,1.62012-0.37988,2.17969-1.04004l0.96094,1.2002
			c-0.82031,0.94043-2.04102,1.48047-3.34082,1.48047c-2.66113,0-4.34082-2.08105-4.34082-5.08105
			C514.19043,432.98926,515.75,430.72852,518.33105,430.72852z M516.19043,435.0293h4.2207
			c-0.01953-1.2002-0.55957-2.68066-2.10059-2.68066C516.81055,432.34863,516.25098,433.86914,516.19043,435.0293z"/>
		<path class="st4" d="M524.29004,438.08984c0.58008,0.64062,1.60059,1.20117,2.60059,1.20117s1.60059-0.46094,1.60059-1.20117
			c0-0.7998-0.83984-1.16016-1.82031-1.51953c-1.36035-0.48047-2.96094-1.06055-2.96094-3.08105
			c0-1.5,1.2002-2.76074,3.32129-2.76074c1.33984,0,2.41992,0.5,3.18066,1.24023l-0.84082,1.36035
			c-0.47949-0.58008-1.33984-1.01953-2.2998-1.01953c-0.90039,0-1.48047,0.43945-1.48047,1.05957
			c0,0.7207,0.7998,1.06055,1.75977,1.40039c1.38086,0.5,3.04102,1.10059,3.04102,3.2207c0,1.66016-1.33984,2.88086-3.46094,2.88086
			c-1.48047,0-2.7207-0.5-3.54102-1.38086L524.29004,438.08984z"/>
		<path class="st4" d="M532.30957,438.08984c0.58008,0.64062,1.60059,1.20117,2.60059,1.20117s1.60059-0.46094,1.60059-1.20117
			c0-0.7998-0.83984-1.16016-1.82031-1.51953c-1.36035-0.48047-2.96094-1.06055-2.96094-3.08105
			c0-1.5,1.2002-2.76074,3.32129-2.76074c1.33984,0,2.41992,0.5,3.18066,1.24023l-0.84082,1.36035
			c-0.47949-0.58008-1.33984-1.01953-2.2998-1.01953c-0.90039,0-1.48047,0.43945-1.48047,1.05957
			c0,0.7207,0.7998,1.06055,1.75977,1.40039c1.38086,0.5,3.04102,1.10059,3.04102,3.2207c0,1.66016-1.33984,2.88086-3.46094,2.88086
			c-1.48047,0-2.7207-0.5-3.54102-1.38086L532.30957,438.08984z"/>
		<path class="st4" d="M473.61133,453.96973c0-4.02148,2.10059-6.90137,5.38086-6.90137c2.38086,0,3.58105,1.45996,4.28125,2.94043
			l-1.84033,0.82031c-0.46045-1.06055-1.28027-1.80078-2.44092-1.80078c-1.90039,0-3.12061,2.08008-3.12061,4.94141
			c0,2.83984,1.22021,4.9209,3.12061,4.9209c1.22021,0,2.04053-0.83984,2.46094-1.96094l1.84033,0.82031
			c-0.68018,1.56055-1.88037,3.12109-4.30127,3.12109C475.71191,460.87109,473.61133,457.9707,473.61133,453.96973z"/>
		<path class="st4" d="M484.47119,455.79004c0-2.7207,1.44043-5.06152,4.18066-5.06152c2.74072,0,4.18115,2.34082,4.18115,5.06152
			s-1.44043,5.08105-4.18115,5.08105C485.91162,460.87109,484.47119,458.51074,484.47119,455.79004z M490.77246,455.79004
			c0-1.74023-0.66016-3.30078-2.12061-3.30078c-1.45996,0-2.12012,1.56055-2.12012,3.30078s0.66016,3.32031,2.12012,3.32031
			C490.1123,459.11035,490.77246,457.53027,490.77246,455.79004z"/>
		<path class="st4" d="M500.05225,454.0498c0-1.14062-0.52002-1.56055-1.38037-1.56055s-1.60059,0.66016-1.96045,1.33984v6.80176
			h-2.00049v-9.66211h2.00049v1.30078c0.52002-0.78027,1.60059-1.54102,2.80078-1.54102c1.74023,0,2.54053,0.95996,2.54053,2.62109
			v7.28125h-2.00049V454.0498z"/>
		<path class="st4" d="M504.771,458.4707v-5.76172h-1.26025v-1.74023h1.26025v-2.64062h2v2.64062h1.60059v1.74023H506.771v5.3418
			c0,0.65918,0.22021,1.05957,0.74023,1.05957c0.32031,0,0.62012-0.13965,0.76025-0.32031l0.47998,1.50098
			c-0.35986,0.35938-0.91992,0.58008-1.74023,0.58008C505.49072,460.87109,504.771,460.05078,504.771,458.4707z"/>
		<path class="st4" d="M510.07031,450.96875h2.00049v1.41992c0.56006-0.93945,1.58057-1.63965,2.66064-1.63965v1.98047
			c-0.16016-0.04004-0.34082-0.06055-0.52051-0.06055c-0.82031,0-1.74023,0.62012-2.14014,1.34082v6.62109h-2.00049V450.96875z"/>
		<path class="st4" d="M515.75,455.79004c0-2.7207,1.44043-5.06152,4.18066-5.06152c2.74121,0,4.18164,2.34082,4.18164,5.06152
			s-1.44043,5.08105-4.18164,5.08105C517.19043,460.87109,515.75,458.51074,515.75,455.79004z M522.05176,455.79004
			c0-1.74023-0.66016-3.30078-2.12109-3.30078c-1.45996,0-2.12012,1.56055-2.12012,3.30078s0.66016,3.32031,2.12012,3.32031
			C521.3916,459.11035,522.05176,457.53027,522.05176,455.79004z"/>
		<path class="st4" d="M525.99023,447.28809h2v13.34277h-2V447.28809z"/>
		<path class="st4" d="M530.34961,447.28809h2.00098v13.34277h-2.00098V447.28809z"/>
		<path class="st4" d="M538.37012,450.72852c2.62109,0,4.02148,2.2207,4.02148,5.1416v0.58008H536.25
			c0.08008,1.58008,0.95996,2.78027,2.52051,2.78027c0.76074,0,1.62012-0.37988,2.18066-1.04004l0.95996,1.2002
			c-0.82031,0.94043-2.04004,1.48047-3.34082,1.48047c-2.66016,0-4.34082-2.08105-4.34082-5.08105
			C534.22949,452.98926,535.79004,450.72852,538.37012,450.72852z M536.23047,455.0293h4.2207
			c-0.02051-1.2002-0.56055-2.68066-2.10059-2.68066C536.85059,452.34863,536.29004,453.86914,536.23047,455.0293z"/>
		<path class="st4" d="M544.18945,450.96875h2.00098v1.41992c0.55957-0.93945,1.58008-1.63965,2.66016-1.63965v1.98047
			c-0.16016-0.04004-0.33984-0.06055-0.51953-0.06055c-0.82031,0-1.74121,0.62012-2.14062,1.34082v6.62109h-2.00098V450.96875z"/>
	</g>
</g>
<g>
	<circle class="st24" cx="314.21939" cy="566.12097" r="40"/>
	<g>
		<path class="st25" d="M306.1676,575.49115c-1.10876,0.50543-3.04672,1.12555-6.4314,2.09808
			c-7.74011,2.224-9.34918,8.85846-9.34918,8.85846h47.66476c0,0-1.52316-6.95953-9.34924-8.85846
			c-3.44168-0.83514-5.3743-1.48163-6.4563-2.06378"/>
		<polyline class="st25" points="306.15909,575.49506 314.23193,586.44769 322.24628,575.52545 		"/>
		<g>
			<path class="st25" d="M328.15533,574.27991h-9.15158c3.80948-2.32635,6.05161-7.18445,6.62701-12.93848
				c0.31558-3.1557-0.31558-6.94257-0.31558-6.94257s-0.9357-9.15155-6.94257-9.15155c-5.98099,0-8.30679,4.89264-16.34082,5.59406
				l-1.96234,0.08624c0.69235,0,1.34235-0.0321,1.96234-0.08624l1.44879-0.06366c-0.37573,1.42804-0.5231,5.06787-0.5231,5.06787
				v1.61066c0,5.78278,2.45407,14.49731,6.26355,16.82367h-9.15158c0,0-2.52457,0.31555-2.52457-3.78687v-3.78687
				c-0.63113-29.97931,16.72531-28.71704,16.72531-28.71704c20.51215-0.31555,17.35641,31.24158,17.35641,31.24158
				S331.9422,573.96429,328.15533,574.27991z"/>
			<path class="st26" d="M302.0318,550.84137l-1.96234,0.08624C300.76181,550.92761,301.4118,550.89551,302.0318,550.84137z"/>
		</g>
	</g>
</g>
</svg>
